<svg width="32" height="33" viewBox="0 0 32 33" fill="none" xmlns="http://www.w3.org/2000/svg">
<path fill-rule="evenodd" clip-rule="evenodd" d="M20.0597 0.0644531C26.2307 0.0644531 31.3196 4.74584 31.9463 10.751C31.9893 11.1631 32 11.5813 32 12.0048L15.9402 12.0047C15.8656 12.2863 15.7958 12.5746 15.731 12.8685C25.511 13.4211 31.1927 22.2045 31.8209 32.0374C31.8209 32.0374 17.8434 33.3234 15.1813 18.1865L15.1821 18.185C15.2178 21.7895 16.1051 25.4397 18.3108 27.8814C17.0121 28.2723 15.635 28.4824 14.209 28.4824C13.1392 28.4824 12.0971 28.3642 11.095 28.1401C9.66866 25.9826 9.52161 21.9451 9.52161 21.9451L8.74979 27.3958C3.6119 25.2559 0 20.1864 0 14.2734C0 6.42601 6.36155 0.0644531 14.209 0.0644531C14.2289 0.0644531 14.2487 0.064494 14.2686 0.0645758L14.2687 0.0644531H20.0597Z" fill="#152239"/>
<path d="M13.25 11.6467H20.2009L31.459 11.6467C31.459 5.44795 26.4186 0.422852 20.2009 0.422852H14.9106L13.25 11.6467Z" fill="#FFBB7B"/>
<path d="M13.6719 6.92969C13.6719 6.92969 18.3002 6.92969 22.2987 6.92969C28.7167 6.92969 30.5674 10.87 30.5674 10.87H13.6719V6.92969Z" fill="#F87AA3"/>
<path d="M3.25 10.6908C3.25002 6.16025 6.82581 1.40424 11.3466 1.10615C12.023 1.06155 12.6434 1.1575 13.1306 1.43709C13.9011 1.87927 14.2052 5.25799 13.8526 7.88485L13.7157 8.62572C12.7906 13.6319 10.5428 20.7141 5.86239 18.7114C3.48818 17.6956 3.24999 13.5565 3.25 10.6908Z" fill="white"/>
<path d="M10.2976 6.81072C11.1054 6.81072 11.7603 6.15585 11.7603 5.34803C11.7603 5.07188 11.6837 4.8136 11.5507 4.59325C11.4821 4.77278 11.3082 4.90027 11.1045 4.90027C10.8407 4.90027 10.6269 4.68644 10.6269 4.42266C10.6269 4.24208 10.7271 4.0849 10.8749 4.00372C10.6978 3.92754 10.5026 3.88535 10.2976 3.88535C9.48975 3.88535 8.83489 4.54022 8.83489 5.34803C8.83489 6.15585 9.48975 6.81072 10.2976 6.81072Z" fill="#152239"/>
<path fill-rule="evenodd" clip-rule="evenodd" d="M13.2836 11.5271L14.7702 0.0753355C14.584 0.0681029 14.3969 0.0644531 14.209 0.0644531C6.36157 0.0644531 0 6.42602 0 14.2734C0 20.1865 3.6119 25.2559 8.74978 27.3958L9.5216 21.9451C9.5216 21.9451 9.66868 25.9826 11.095 28.1401C12.0972 28.3642 13.1392 28.4824 14.209 28.4824C15.6351 28.4824 17.0121 28.2723 18.3108 27.8813C14.6638 23.8442 14.6211 16.5026 16.073 11.5271H13.2836ZM11.4555 1.60334C12.8086 1.29346 13.8345 2.5166 13.6347 3.89029L12.1589 14.0363C11.6738 17.3715 8.45778 20.2381 5.99538 17.9369C4.45292 16.4953 3.4031 13.9215 4.31934 9.33429C5.39644 3.94179 8.96505 2.1737 11.4555 1.60334Z" fill="#152239"/>
<path fill-rule="evenodd" clip-rule="evenodd" d="M13.9597 10.751L25.2537 10.751H30.6866C30.4887 9.05797 29.8914 7.48581 28.997 6.1295C27.0857 3.23093 23.7914 1.31819 20.0597 1.31818L15.351 1.31818L13.9597 10.751ZM12.5075 12.0047L14.2687 0.0644531L20.0597 0.0644535C26.2307 0.064454 31.3197 4.74585 31.9463 10.751C31.9893 11.1631 32 11.5813 32 12.0047L12.5075 12.0047Z" fill="#152239"/>
<path d="M30.9552 11.6465C29.943 11.5053 24.9872 12.1178 25.2537 10.751C25.6601 8.66681 27.0932 6.94669 28.997 6.1295C30.9124 5.30737 31.5143 11.7245 30.9552 11.6465Z" fill="#152239"/>
<path d="M31.8209 32.0373C31.8209 32.0373 14.7463 33.6083 14.7463 12.8406C25.1292 12.8406 31.1719 21.8789 31.8209 32.0373Z" fill="#152239"/>
</svg>
